<?xml version="1.0" ?><svg id="Layer_1" style="enable-background:new 0 0 512 512;" version="1.1" viewBox="0 0 512 512" xml:space="preserve" xmlns="http://www.w3.org/2000/svg" xmlns:xlink="http://www.w3.org/1999/xlink"><style type="text/css">
	.st0{fill:#746764;}
	.st1{fill:#FFFFFF;}
	.st2{fill:#474648;}
	.st3{fill:#DCC5A1;}
	.st4{fill:#EDD9B4;}
	.st5{fill:#BC9F82;}
	.st6{fill:none;}
	.st7{fill-rule:evenodd;clip-rule:evenodd;fill:#DCC5A1;}
	.st8{fill-rule:evenodd;clip-rule:evenodd;fill:#EDD9B4;}
	.st9{fill:#231F20;}
	.st10{opacity:0.1;}
	.st11{clip-path:url(#SVGID_2_);fill-rule:evenodd;clip-rule:evenodd;fill:#010101;}
	.st12{fill:#342214;}
	.st13{fill:#BE1E2D;}
	.st14{fill:#30A7DF;}
	.st15{fill-rule:evenodd;clip-rule:evenodd;fill:#E7E7E7;}
</style><g><path class="st0" d="M83.1,374.7c10-8.9,34.1-27.7,108.8-61.8c0.6-0.3,1.1-0.5,1.7-0.8l15.9-7.1c0.5-0.2,1.1-0.5,1.6-0.7v20.3   l3.8,33c18.1-5.2,41.3-10.7,41.3-10.7l40.4,13.9l4.2-36.2v-20.2c1.4,0.6,2.9,1.3,4.3,1.9l3.5,1.6c5.5,2.4,10.7,4.8,15.7,7.1   c72,33.1,94.7,51,104.5,59.8c3.4,3,6.5,7.7,9.3,13.6c21.2-33.4,33.5-73,33.5-115.5C471.7,153.6,375.1,57,256,57   C136.9,57,40.3,153.6,40.3,272.8c0,42.5,12.3,82.1,33.5,115.5C76.6,382.4,79.7,377.7,83.1,374.7z"/><path class="st1" d="M256.2,346.9c0,0-23.1,5.5-41.3,10.7l15,129.4c1,0.1,1.9,0.2,2.9,0.3l14.7-102.8h16.9l14.7,102.8   c0.9-0.1,1.8-0.2,2.7-0.3l14.8-126.2L256.2,346.9z"/><path class="st2" d="M215,357.6c18.1-5.2,41.3-10.7,41.3-10.7l40.4,13.9l4.2-36.2v-20.2c-0.7-0.3-1.4-0.6-2.1-0.9l-84.6-0.6   c-1,0.5-2,0.9-3.1,1.4v20.3L215,357.6z"/><path class="st3" d="M211.1,222.2v68.6v33.8c12.3,14.6,28.6,22.1,44.9,22.3V180.7C233.6,180.7,211.1,194.5,211.1,222.2z"/><path class="st4" d="M256,180.7v166.2c16.3,0.1,32.5-7.2,44.9-22.3v-33.8v-68.6C300.9,194.5,278.4,180.7,256,180.7z"/><path class="st5" d="M211.1,271.8v3.2c0,0,22.9,27.2,44.8,28.2c21.9,1,44.9-26.3,44.9-26.3v-5"/><rect class="st6" height="31.4" width="89.7" x="211.1" y="271.8"/><g><path class="st7" d="M162.8,157.7c-0.1,0-0.2,0-0.3,0.1c-7.9,2.6-10.7,15.8-6.2,29.4c2.7,8.3,7.6,14.9,12.7,18.2    c4,19,8.8,32.9,11,36.4c9.9,16,53.8,51.2,76.1,51.2V38.3C176.2,38.3,160.3,101.6,162.8,157.7z"/><path class="st8" d="M349.4,157.9c2.5-56.2-13.4-119.6-93.3-119.6V293c22.3,0,66.2-35.2,76.1-51.2c2.2-3.6,7.1-17.6,11.1-36.9    c4.9-3.4,9.4-9.8,12-17.7C359.8,173.7,357.1,160.7,349.4,157.9z"/></g><path class="st9" d="M318,42.7C271.4,6,199.4,27.9,177.7,58.5c-27.2,38.3-17.6,96.3-11.1,140v-0.2c0.1,0.4,0.2,0.9,0.3,1.4   c0.1,0.4,0.9,1.4,1,1.6c0.2,0.4,1.9,0,2.5-0.3c0.2-0.1,0.3-0.4,0.3-0.6c0.3-3.9,0-11.5,0-11.6c-0.5-6-1.8-11.8-2.7-17.7   c4.4-27.5,17.3-33.3,24-66.5c1.4-2.2,3-4.4,4.6-6.5c1.9-2.4,3.8-4.7,6-6.8c1.2-0.7,2.3-1.5,3.4-2.3c25.1-9.2,51,1.8,74.6,11.5   c9.1,3.7,19.2,8.1,29.2,7.3c4.3-0.3,7.5-3.1,7.9-6.7c11.3,34,20.7,49.7,26.2,74.6c-0.8,4.3-1.6,8.6-1.9,13.1c0,0.1-0.2,7.7,0,11.6   c0,0.2,0.1,0.5,0.3,0.6c0.6,0.3,2.2,0.7,2.5,0.3c0.1-0.3,0.9-1.3,1-1.6c0.4-1.7,0.5-3.1,0.6-4.7c0.3-2.2,0.7-4.5,1-6.9   C354.4,161.1,367.7,54.3,318,42.7 M247.3,78.7c-0.8-0.2-1.5-0.5-2.3-0.7c1.2,0.3,2.3,0.6,3.5,0.9C248.1,78.9,247.7,78.8,247.3,78.7   "/><rect class="st6" height="57.5" width="89.7" x="211.1" y="289.4"/><g class="st10"><g><defs><rect height="0.6" id="SVGID_1_" width="17" x="247.5" y="384.5"/></defs><clipPath id="SVGID_2_"><use style="overflow:visible;" xlink:href="#SVGID_1_"/></clipPath><polygon class="st11" points="247.6,384.5 264.4,384.5 264.5,385 247.5,385    "/></g></g><g><path class="st12" d="M209.9,153.1c6.2,0,11.3,5.7,11.3,12.8c0,7.1-5.1,12.8-11.3,12.8c-6.2,0-11.3-5.8-11.3-12.8    C198.6,158.8,203.6,153.1,209.9,153.1"/><path class="st12" d="M301.7,153.1c6.2,0,11.3,5.7,11.3,12.8c0,7.1-5.1,12.8-11.3,12.8c-6.2,0-11.3-5.8-11.3-12.8    C290.4,158.8,295.5,153.1,301.7,153.1"/><path class="st1" d="M232.5,234.3c4,8.9,13,15.1,23.3,15.1c10.4,0,19.3-6.2,23.4-15.1H232.5z"/></g><path class="st2" d="M305.1,306.3l3.5,1.6C307.5,307.3,306.3,306.8,305.1,306.3z"/><path class="st2" d="M193.6,312.1l15.9-7.1C204,307.4,198.7,309.8,193.6,312.1z"/><path class="st9" d="M211.1,304.3l-1.6,0.7C210.1,304.8,210.6,304.5,211.1,304.3L211.1,304.3z"/><path class="st9" d="M192,312.9L192,312.9c0.5-0.2,1.1-0.5,1.7-0.7L192,312.9z"/><path class="st9" d="M300.9,304.4L300.9,304.4c1.4,0.6,2.9,1.3,4.3,1.9L300.9,304.4z"/><path class="st9" d="M324.2,314.8l-15.6-6.9c5.5,2.4,10.7,4.8,15.7,7.1L324.2,314.8z"/><polygon class="st13" points="256,488.5 256,488.5 256,488.5  "/><path class="st2" d="M190,478.2l-29.8-60.4l35.2-23.5l-43-20.1l39.5-61.4c-74.7,34.1-98.8,53-108.8,61.8c-3.4,3-6.5,7.7-9.3,13.6   C100.6,430.4,141.5,462.6,190,478.2z"/><path class="st2" d="M428.9,374.7c-9.9-8.7-32.5-26.7-104.5-59.8l35,59.3l-43,20.1l35.2,23.5l-29.8,60.5   c48.5-15.5,89.6-47.8,116.4-90C435.4,382.4,432.3,377.7,428.9,374.7z"/><path class="st9" d="M211.1,324.6v-20.3c-0.5,0.2-1.1,0.5-1.6,0.7l-15.9,7.1c-0.6,0.3-1.1,0.5-1.7,0.8l-39.5,61.4l43,20.1   l-35.2,23.5l29.8,60.4c12.8,4.1,26.2,7.1,40,8.7l-15-129.4L211.1,324.6z"/><path class="st9" d="M316.4,394.3l43-20.1l-35-59.3c-5-2.3-10.2-4.7-15.7-7.1l-3.5-1.6c-1.4-0.6-2.8-1.3-4.3-1.9v20.2l-4.2,36.2   L281.9,487c13.7-1.6,27.1-4.6,39.9-8.7l29.8-60.5L316.4,394.3z"/><path class="st14" d="M264.4,384.5L264.4,384.5l11.2-17.3l-19.3-20.3l-20.1,20.3l11.4,17.3h0l-14.7,102.8   c7.6,0.8,15.3,1.2,23.1,1.2c0,0,0,0,0,0c7.8,0,15.5-0.4,23.1-1.2L264.4,384.5z"/><polygon class="st15" points="211.1,290.7 207.2,306 218.2,385.4 256.2,346.9  "/><polygon class="st15" points="300.9,290.7 304,305.8 293.6,386.2 256.2,346.9  "/></g></svg>