<?xml version="1.0" encoding="UTF-8" standalone="no"?>
<svg
   xmlns:dc="http://purl.org/dc/elements/1.1/"
   xmlns:cc="http://creativecommons.org/ns#"
   xmlns:rdf="http://www.w3.org/1999/02/22-rdf-syntax-ns#"
   xmlns:svg="http://www.w3.org/2000/svg"
   xmlns="http://www.w3.org/2000/svg"
   xmlns:sodipodi="http://sodipodi.sourceforge.net/DTD/sodipodi-0.dtd"
   xmlns:inkscape="http://www.inkscape.org/namespaces/inkscape"
   width="225.881"
   height="60"
   clip-rule="evenodd"
   version="1.1"
   id="svg37"
   sodipodi:docname="acme-logo.svg"
   inkscape:version="0.92.4 (5da689c313, 2019-01-14)">
  <sodipodi:namedview
     pagecolor="#ffffff"
     bordercolor="#666666"
     borderopacity="1"
     objecttolerance="10"
     gridtolerance="10"
     guidetolerance="10"
     inkscape:pageopacity="0"
     inkscape:pageshadow="2"
     inkscape:window-width="2094"
     inkscape:window-height="912"
     id="namedview39"
     showgrid="false"
     inkscape:zoom="1.8770946"
     inkscape:cx="113.47324"
     inkscape:cy="30"
     inkscape:window-x="0"
     inkscape:window-y="27"
     inkscape:window-maximized="0"
     inkscape:current-layer="svg37" />
  <metadata
     id="metadata36">image/svg+xml<rdf:RDF>
  <cc:Work
     rdf:about="">
    <dc:format>image/svg+xml</dc:format>
    <dc:type
       rdf:resource="http://purl.org/dc/dcmitype/StillImage" />
  </cc:Work>
</rdf:RDF>
</metadata>
  <defs
     id="defs5">
    <style
       type="text/css"
       id="style3">.fil1{fill:#c36}.fil2{fill:#fff}.fil0{fill:#c36;fill-rule:nonzero}</style>
  </defs>
  <g
     id="g10"
     transform="translate(6.589049,-1.909916)">
    <title
       id="title7">background</title>
    <rect
       id="canvas_background"
       width="227.881"
       height="62"
       x="-1"
       y="-1"
       style="fill:none" />
  </g>
  <path
     inkscape:connector-curvature="0"
     d="m 220.29195,0.909916 c -0.98936,0 -1.89966,0.228893 -2.76027,0.723571 -0.85609,0.5007 -1.53373,1.18211 -2.0382,2.0382 -0.49468,0.86889 -0.78907,1.77317 -0.78907,2.76027 0,0.99914 0.29439,1.96441 0.78907,2.82727 0.50447,0.86889 1.18211,1.54428 2.0382,2.0382 0.86061,0.49694 1.77091,0.72132 2.76027,0.72132 0.99915,0 1.96215,-0.22438 2.82728,-0.72132 0.85383,-0.49392 1.53523,-1.16931 2.03819,-2.0382 0.49845,-0.86286 0.72358,-1.82813 0.72358,-2.82727 0,-0.9871 -0.22513,-1.89138 -0.72358,-2.76027 -0.50296,-0.85609 -1.18436,-1.5375 -2.03819,-2.0382 -0.86513,-0.494678 -1.82813,-0.723571 -2.82728,-0.723571 z m 0,1.051851 c 1.23632,0 2.28215,0.4352 3.1548,1.31463 0.88169,0.88169 1.31538,1.92074 1.31538,3.15556 0,1.24912 -0.43369,2.33711 -1.31538,3.22257 -0.87265,0.87114 -1.91848,1.31312 -3.1548,1.31312 -1.24988,0 -2.27462,-0.44198 -3.15556,-1.31312 -0.88169,-0.88546 -1.31538,-1.97345 -1.31538,-3.22257 0,-1.23482 0.43369,-2.27387 1.31538,-3.15556 0.88094,-0.87943 1.90568,-1.31463 3.15556,-1.31463 z m -2.49749,1.51265 v 5.98208 h 1.44564 v -2.36648 c 0.0821,-0.0105 0.1551,0 0.19727,0 0.19576,0 0.39152,0.1137 0.59105,0.32828 0.18974,0.22137 0.55943,0.91106 1.11962,2.0382 h 1.77316 c -0.6415,-1.12714 -0.98032,-1.75208 -0.98634,-1.77542 -0.16264,-0.26654 -0.3072,-0.45176 -0.45854,-0.59106 -0.10767,-0.0926 -0.28838,-0.17618 -0.52631,-0.26277 0.55567,-0.13026 0.99087,-0.36367 1.24988,-0.65807 0.25223,-0.29289 0.39303,-0.58729 0.39303,-0.9871 0,-0.50296 -0.19124,-0.95096 -0.52555,-1.24761 -0.33882,-0.31097 -0.88771,-0.46005 -1.6429,-0.46005 z m 1.44564,1.05185 h 0.72357 c 0.40809,0 0.68141,0.0542 0.85383,0.19727 0.16866,0.13704 0.26277,0.30118 0.26277,0.52631 0,0.20781 -0.10089,0.38249 -0.26277,0.52555 -0.18522,0.13251 -0.49242,0.19802 -0.91934,0.19802 h -0.65806 z m -200.174769,6.50839 c -2.50758,0 -5.252787,0.22513 -8.282077,0.72357 -3.039756,0.48414 -5.639873,1.03529 -7.7581846,1.64291 -2.05739945,0.83726 -3.0250736479492,2.18803 -3.0250736479492,4.07489 0,0.15586 0.069420997949,0.58278 0.2650336979492,1.18437 0.1830389,0.61214 0.5070275,1.2032 0.91933565,1.773167 0.4186328,0.56847 0.9592414,0.98032 1.6429079,1.31689 0.673201,0.3471 1.569346,0.37044 2.629556,0.0655 2.503364,-0.60385 4.884677,-1.05637 7.165021,-1.44714 2.269878,-0.36668 4.506024,-0.591807 6.706407,-0.591807 0.982431,0.1536 1.880685,0.364417 2.760039,0.591807 0.870847,0.23943 1.630334,0.50221 2.236147,0.92084 0.605888,0.41863 1.037095,1.04131 1.379982,1.84093 0.342888,0.79058 0.525927,1.86803 0.525927,3.15556 v 2.36648 c -6.287774,0 -10.913742,0.3599 -13.86932,1.11735 -3.113393,0.68141 -5.498922,1.72498 -7.167128,3.09006 -3.487829,2.56826 -5.1939082479492,6.2185 -5.1939082479492,10.91155 0,4.55678 1.7060792479492,8.23562 5.1939082479492,11.04408 2.122603,1.66851 4.59856,2.80168 7.362741,3.41833 2.76629,0.60386 6.018524,0.85609 9.729373,0.85609 2.572784,0 5.503138,-0.18522 8.87524,-0.59331 3.374286,-0.41864 6.456131,-0.95473 9.268726,-1.64291 0.984465,-0.29816 1.83438,-0.81995 2.433868,-1.5774 0.60378,-0.76574 0.919335,-1.6911 0.919335,-2.76253 v -26.22779 c 0,-4.69532 -1.777608,-8.336517 -5.259112,-10.913817 -2.28456,-1.74606 -5.015085,-2.91161 -8.151668,-3.48384 -3.149158,-0.56546 -6.912561,-0.85383 -11.307076,-0.85383 z m 55.022879,0 c -4.093716,0 -7.777082,0.31322 -11.10958,0.91933 -3.338521,0.60386 -6.085234,1.74606 -8.283809,3.41834 -3.481579,2.5773 -5.259187,6.218497 -5.259187,10.913817 v 17.48544 c 0,4.55678 1.777608,8.23562 5.259187,11.04408 2.276127,1.74606 4.970888,2.886 8.153551,3.41833 3.182663,0.5263 6.920994,0.78908 11.239838,0.78908 1.139946,0 2.413165,-0.0866 3.813627,-0.19802 1.395191,-0.10918 2.827277,-0.30043 4.272915,-0.52555 1.434345,-0.22137 2.867183,-0.45478 4.272163,-0.72207 1.403474,-0.2688 2.672172,-0.55717 3.814377,-0.85609 1.960647,-0.83049 2.957535,-2.2317 2.957535,-4.20741 0,-0.0625 -0.105411,-0.49393 -0.262775,-1.24686 -0.301174,-1.13618 -0.955476,-1.99227 -1.973447,-2.5645 -1.022488,-0.57224 -2.08714,-0.69647 -3.22031,-0.3953 -2.808453,0.68367 -5.221615,1.21374 -7.23045,1.5119 -1.998294,0.30343 -4.230752,0.4608 -6.639398,0.4608 -2.054764,0 -3.656261,-0.53007 -4.865477,-1.51265 -0.534585,-0.30645 -1.024747,-0.87266 -1.445638,-1.70766 -0.411857,-0.83727 -0.658067,-1.92074 -0.658067,-3.28808 v -17.48544 c 0.07605,-1.3568 0.317739,-2.48846 0.658067,-3.28808 0.343339,-0.78908 0.807901,-1.35453 1.380133,-1.77316 0.57449,-0.41713 1.273216,-0.768 2.103705,-0.9216 0.833501,-0.1408 1.748319,-0.2944 2.827277,-0.526297 2.19406,0 4.437058,0.16263 6.70415,0.526297 2.278386,0.39303 4.665949,0.90654 7.165698,1.51265 0.146823,0.0798 0.451762,0.13026 0.986347,0.13026 2.273869,0 3.678849,-1.03529 4.20741,-3.155557 0.157364,-0.76348 0.262775,-1.23933 0.262775,-1.31463 0,-1.88912 -0.996888,-3.23988 -2.957535,-4.07489 -1.22051,-0.30268 -2.312268,-0.55567 -3.221063,-0.78908 -0.908795,-0.22287 -1.67679,-0.4352 -2.433491,-0.59331 -3.643461,-0.68141 -7.184522,-0.98409 -10.518528,-0.98409 z m 46.41253,0 c -2.57053,0 -5.60185,0.20179 -9.00739,0.65656 -3.41456,0.45176 -6.46471,0.97129 -9.26865,1.5774 -0.98484,0.30494 -1.82587,0.88997 -2.431979,1.64517 -0.60988,0.76574 -0.9216,1.64065 -0.9216,2.69476 v 34.905387 c 0,1.30258 0.41261,2.38606 1.249879,3.22332 0.82446,0.83501 1.87632,1.24912 3.09005,1.24912 h 8.7431 c 1.20922,0 2.28441,-0.44122 3.15556,-1.31688 0.87717,-0.8704 1.31463,-1.93731 1.31463,-3.15556 v -31.94785 c 1.51415,-0.53835 2.97259,-0.789077 4.33992,-0.789077 1.27849,0 2.10973,0.16263 2.49674,0.526297 0.7552,0.46682 1.24988,1.29355 1.51265,2.43199 0.26503,1.14446 0.39303,2.33937 0.39303,3.55085 v 26.22779 c 0,1.30258 0.41261,2.38606 1.24988,3.22332 0.84103,0.83501 1.87632,1.24912 3.09005,1.24912 h 8.7431 c 1.21599,0 2.24827,-0.4751 3.09005,-1.38163 0.83125,-0.9216 1.18211,-1.94409 1.18211,-3.09081 v -31.94785 c 0.83727,-0.23944 1.67228,-0.44574 2.43425,-0.59106 0.7567,-0.155857 1.42832,-0.198017 2.0382,-0.198017 1.7438,0 2.9116,0.520277 3.48384,1.578147 0.57223,1.0624 0.85383,2.73919 0.85383,4.93099 v 26.22779 c 0,1.22051 0.44423,2.28516 1.31462,3.15556 0.87943,0.87341 1.88536,1.31688 3.09081,1.31688 h 8.74235 c 1.21373,0 2.24224,-0.4751 3.09005,-1.38163 0.82672,-0.9216 1.24987,-1.94409 1.24761,-3.09081 v -26.22779 c 0,-4.54849 -1.70841,-8.185177 -5.12674,-10.913817 -2.04423,-1.59246 -4.54172,-2.76629 -7.49473,-3.41834 -2.96206,-0.63322 -6.11761,-0.91933 -9.53218,-0.91933 -2.72413,0 -5.25475,0.11972 -7.55798,0.39303 -2.31453,0.26127 -4.67047,0.6016 -7.1017,1.05185 -1.96968,-0.60159 -3.74887,-0.99463 -5.25926,-1.18211 -1.51943,-0.1807 -3.58097,-0.26277 -6.2441,-0.26277 z m 75.53385,0 c -2.57881,0 -5.57249,0.17242 -8.94037,0.59105 -3.38069,0.4209 -6.4602,0.9615 -9.26865,1.64291 -0.9871,0.30494 -1.82587,0.88771 -2.43199,1.64517 -0.60988,0.76348 -0.85609,1.64065 -0.85609,2.69476 v 26.163037 c 0,4.55678 1.70992,8.23337 5.19376,11.04408 2.2701,1.7438 5.02962,2.88224 8.2168,3.41833 3.1804,0.5263 6.92551,0.78908 11.2421,0.78908 1.13542,0 2.4109,-0.0843 3.81136,-0.19802 1.4095,-0.1152 2.8318,-0.30043 4.27518,-0.52555 1.44036,-0.22137 2.86266,-0.45478 4.27216,-0.72207 1.40498,-0.2688 2.66539,-0.55266 3.81362,-0.85609 1.97119,-0.83049 2.95829,-2.22719 2.95829,-4.20741 0.067,-0.1408 -0.009,-0.48338 -0.19802,-1.05185 -0.18899,-0.576 -0.53007,-1.13769 -0.98635,-1.70766 -0.45251,-0.55793 -1.04357,-1.03529 -1.77392,-1.38013 -0.71679,-0.33657 -1.51415,-0.36593 -2.49899,-0.067 -2.81222,0.68141 -5.22764,1.21148 -7.23196,1.5119 -2.01787,0.30569 -4.21795,0.4608 -6.6394,0.4608 -2.05928,0 -3.71725,-0.52555 -4.93098,-1.51265 -0.52555,-0.30645 -0.96526,-0.87266 -1.38013,-1.70766 -0.4224,-0.83501 -0.65581,-1.92074 -0.65581,-3.28808 v -2.30172 c 6.13794,0 10.76172,-0.30494 13.87135,-0.98409 3.10285,-0.83501 5.49644,-1.923 7.16495,-3.22257 3.47706,-2.57279 5.25926,-6.19742 5.25926,-10.97706 0,-4.69758 -1.7822,-8.341037 -5.25926,-10.913817 -2.12027,-1.67679 -4.60045,-2.81674 -7.36297,-3.41834 -2.76629,-0.60837 -5.95347,-0.91933 -9.66394,-0.91933 z m 0.32828,8.74235 c 1.28526,0 2.12629,0.16414 2.499,0.526297 0.84554,0.54513 1.34625,1.31689 1.5774,2.30098 0.22513,0.98258 0.32828,2.24902 0.32828,3.68186 0,1.20921 -0.12198,2.37702 -0.39529,3.54859 -0.2673,1.18437 -0.74918,1.98173 -1.51039,2.43424 -0.53007,0.37873 -1.32517,0.59106 -2.30173,0.59106 -1.44489,0 -2.93871,-0.25676 -4.53494,-0.78908 v -11.50487 c 1.51867,-0.53835 2.97034,-0.789077 4.33767,-0.789077 z M 21.56237,37.263204 c 1.594569,0 3.155482,0.27332 4.667982,0.72357 v 11.56963 c -1.5125,0.53006 -2.972444,0.78907 -4.337744,0.78907 -1.741768,0 -2.879832,-0.51726 -3.48572,-1.57815 -0.607921,-1.05562 -0.91926,-2.71359 -0.91926,-4.99574 -0.07785,-1.96516 0.246059,-3.61635 0.91926,-4.86397 0.694208,-1.24686 1.714437,-1.78596 3.155482,-1.64441 z"
     style="fill:#231f20;fill-opacity:1;fill-rule:nonzero;stroke:none;stroke-width:0.75293666"
     id="path4568" />
</svg>
