<svg version="1" xmlns="http://www.w3.org/2000/svg" width="400" height="400" viewBox="0 0 300.000000 300.000000"><path d="M0 150v150h300V0H0v150zm71.2-95.5l2.5 2.4 88.4.3 88.4.3 6.7 2.3c8.1 2.7 15.8 9.2 19.5 16.6 5.1 9.8 4 28.2-2.3 40.9-5.8 11.6-18.7 27.1-28.5 34.3l-4.6 3.3 3.1 6.2c2.7 5.5 3 7 3 15.8-.1 27.9-17 54.6-41.5 65.4-13.6 6-15.1 6.1-76.9 5.8-37.1-.2-56.9-.6-57.7-1.3-1.8-1.4-1.6-4.3.3-6.2 1.4-1.4 7.3-1.6 50.5-1.6H171l1.2-2.5c.9-2.1.8-2.8-.7-4.5-1.8-2-3-2-61.6-2H50.2l-3 3c-6.3 6.2-17.2 1.8-17.2-7 0-3.7 3-8.1 6.6-9.6 2.9-1.2 3.9-1.2 6.6-.1 1.8.8 3.9 2.1 4.7 3 1.2 1.6 7.7 1.7 75 1.7 56 0 74-.3 74.9-1.2 1.5-1.5 1.5-5.1 0-6.6-.9-.9-16.1-1.2-62.4-1.2-54.4 0-61.4-.2-62.8-1.6-1.9-1.8-2.1-4.5-.4-6.2.9-.9 14.3-1.2 53.9-1.2 46.6 0 52.9-.2 54.3-1.6 1.9-1.8 2.1-4.5.4-6.2-.9-.9-13.5-1.2-50.4-1.2-43.4 0-49.4-.2-50.8-1.6-1.9-1.8-2.1-4.5-.4-6.2.9-.9 14-1.2 52.8-1.2 56.3 0 55.5.1 54.8-5.5l-.3-3-57.5-.5-57.5-.5-3.3 2.8c-3.5 2.9-8.7 3.6-12.3 1.7-2.2-1.2-4.9-6.1-4.9-8.9 0-8.5 10.3-13.1 16.8-7.6l3 2.5h45.1c44.5 0 45 0 46.1-2.1.9-1.6.8-2.6-.5-4.5L160 157h-30.8c-22.6 0-31.1-.3-32-1.2-1.7-1.7-1.5-4.4.4-6.2 1.3-1.4 6.5-1.6 41.8-1.6 29.9 0 40.5-.3 41.4-1.2 1.7-1.7 1.5-4.4-.4-6.2-1.4-1.4-9.2-1.6-71.3-1.6-62.2 0-70 .2-71.2 1.6-4.2 5.1-11.2 5.3-15.4.2-5.7-6.7-.9-16.8 8-16.8 1.3 0 4 1.3 5.8 3l3.5 3h168.1l1.5-2.2c1.3-1.9 1.4-2.5.2-4.3-1.3-2-2.2-2-53.2-2.3-46.4-.2-52-.4-53.6-1.9-2.2-2-2.3-3.7-.2-5.7 1.4-1.4 6.8-1.6 44.4-1.6s43-.2 44.4-1.6c1.9-1.8 2.1-4.5.4-6.2-.9-.9-15.7-1.2-60.4-1.2-52.5 0-59.4-.2-60.8-1.6-1.9-1.8-2.1-4.5-.4-6.2.9-.9 19.7-1.2 78.5-1.2 76 0 77.3 0 79.3-2 2.4-2.4 2.4-3 .6-5.6-1.4-1.8-3.5-1.9-70.2-2.2-48.2-.2-69.1-.6-70.1-1.3-1.8-1.5-1.6-4.4.3-6.3 1.4-1.4 8.1-1.6 59-1.6H205l1.2-2.5c.9-2.1.8-2.8-.7-4.5-1.8-2-3-2-66.3-2H74.8l-3.5 3c-5.7 5.1-12.9 3.5-15.9-3.5-1.7-4-.3-9.8 2.9-12 3.5-2.4 10-1.9 12.9 1z"/><path d="M61 58c-1.1 1.1-2 2.8-2 3.8 0 2.4 3.1 5.2 5.8 5.2 2.1 0 5.2-3.4 5.2-5.7 0-1.8-3.7-5.3-5.5-5.3-.8 0-2.4.9-3.5 2zM26.8 130.1c-3.4 1.9-1.3 9.9 2.5 9.9 2.4 0 5.7-3.1 5.7-5.4 0-2.5-2.8-5.6-5.1-5.6-.8 0-2.2.5-3.1 1.1zM57.6 167.6c-1.9 1.8-2 3.8-.6 6.5 1.2 2.2 5.9 2.6 7.8.7 1.5-1.5 1.5-6.1 0-7.6-1.7-1.7-5.4-1.5-7.2.4zM38 221.3c-4.9 2.4-3 9.7 2.4 9.7 3.1 0 4.8-2.2 4.4-5.6-.4-3.8-3.6-5.7-6.8-4.1z"/></svg>