<svg width="225.88117" height="60" xmlns="http://www.w3.org/2000/svg" clip-rule="evenodd">
 <metadata id="metadata36">image/svg+xml</metadata>
 <defs>
  <style type="text/css">
   <![CDATA[
    .fil1 {fill:#CC3366}
    .fil2 {fill:white}
    .fil0 {fill:#CC3366;fill-rule:nonzero}
   ]]>
  </style>
 </defs>
 <g>
  <title>background</title>
  <rect fill="none" id="canvas_background" height="62" width="227.88117" y="-1" x="-1"/>
 </g>
 <g>
  <title>Layer 1</title>
  <g id="g999">
   <path fill="#cc3366" fill-rule="nonzero" id="_458450384" class="fil0" d="m66.638831,2.697933c3.58411,0.175 7.16401,1.2097 9.38631,4.1912c2.546,3.4173 2.1251,7.9864 0.933,11.7527c-0.975,2.463 -2.223,4.083 -3.428,5.80129c-1.205,1.7182 -2.5302,2.9598 -3.659,4.0374c-1.2254,1.1782 -2.4292,2.1616 -3.6113,2.9503c-0.0534,0.1175 -0.1233,0.2261 -0.2067,0.3229c0.665,0.7506 1.168,1.6862 1.5091,2.8068c1.5476,5.1583 -0.9556,12.4746 -4.0727,16.5053c-2.7725,3.5847 -6.8713,6.2904 -11.2813,7.3531c-2.1294,0.5131 -4.2715,0.7696 -6.4265,0.7696l-27.3986,0l0.0242,-0.0604l-2.9324,0c-0.7401,0 -1.3454,-0.6054 -1.3454,-1.3454l0,-0.0002c0,-0.74 0.6053,-1.3454 1.3454,-1.3454l28.4882,0c0.7281,-0.014 1.3196,-0.6138 1.3196,-1.3451l0,-0.0002c0,-0.707 -0.5527,-1.2911 -1.2473,-1.3418l-35.8949,0c-0.7401,0 -1.3454,-0.6053 -1.3454,-1.3454l0,-0.0001c0,-0.7401 0.6053,-1.3454 1.3454,-1.3454l13.4944,0l0.0133,-0.0333c0.0753,0.0177 0.153,0.029 0.2325,0.0333l27.9139,0c0.0242,0 0.0483,0.0007 0.0722,0.002l2.0816,0c0.74,0 1.3454,-0.6054 1.3454,-1.3454l0,-0.0002c0,-0.74 -0.6054,-1.3454 -1.3454,-1.3454l-29.2379,0l0.0001,-0.0002l-6.9014,0c-0.74,0 -1.3454,-0.6054 -1.3454,-1.3454l0,-0.0002c0,-0.74 0.6054,-1.3454 1.3454,-1.3454l7.9778,0l0.0001,-0.0002l22.9648,0c0.74,0 1.3455,-0.6054 1.3455,-1.3454l0,-0.0002c0,-0.74 -0.6055,-1.3454 -1.3455,-1.3454l-21.8884,0l0.0002,-0.0004l-6.9618,0c-0.74,0 -1.3454,-0.6053 -1.3454,-1.3453l0,-0.0002c0,-0.7401 0.6054,-1.3454 1.3454,-1.3454l30.5449,0c0.7185,-0.0249 1.2986,-0.6202 1.2986,-1.3445l0,-0.0002c0,-0.74 -0.6055,-1.3454 -1.3455,-1.3454l-21.3838,0l0.0006,-0.001l-12.5471,0c-0.74,0 -1.3454,-0.6054 -1.3454,-1.3454l0,-0.0002c0,-0.74 0.6054,-1.3454 1.3454,-1.3454l26.4712,0c0.7094,-0.035 1.279,-0.6259 1.279,-1.3437l0,-0.0002c0,-0.74 -0.6055,-1.3453 -1.3455,-1.3453l-11.7056,0l0.00059,-0.001l-5.7895,0c-0.7401,0 -1.3455,-0.6054 -1.3455,-1.3454l0,-0.0002c0,-0.7034 0.5471,-1.2853 1.2369,-1.341l23.4971,0c0.74,0 1.3454,-0.6054 1.3454,-1.3454l0,-0.0002c0,-0.74 -0.6054,-1.3454 -1.3454,-1.3454l-15.448,0l0.0005,-0.001l-26.37499,0c-0.7401,0 -1.3454,-0.6054 -1.3454,-1.3454l0,-0.0002c0,-0.74 0.6053,-1.3454 1.3454,-1.3454l41.65399,0c0.0314,0 0.0625,0.001 0.09341,0.003l8.72429,0c0.7399,0 1.34531,-0.6054 1.34531,-1.34539l0,-0.0002c0,-0.74 -0.60541,-1.3454 -1.34531,-1.3454l-21.9452,0l0.0006,-0.0015l-8.4572,0c-0.74,0 -1.3454,-0.6053 -1.3454,-1.3454l0,-0.0001c0,-0.7401 0.6054,-1.3454 1.3454,-1.3454l25.16171,0c0.7151,-0.0287 1.2911,-0.6224 1.2911,-1.3442l0,-0.0002c0,-0.74 -0.60541,-1.3454 -1.3454,-1.3454l-14.4979,0l0.0018,-0.0046l-20.4423,0c-0.7401,0 -1.3454,-0.6053 -1.3454,-1.3454l0,-0.0002c0,-0.74 0.6053,-1.3453 1.3454,-1.3453l21.5186,0l0.0008,-0.0019l24.4984,0c0.7401,0 1.3455,-0.6053 1.3455,-1.3454l0,-0.0001c0,-0.7236 -0.5788,-1.3182 -1.2962,-1.3444l-40.616,0c-0.74,0 -1.3454,-0.6054 -1.3454,-1.3454l0,-0.0002c0,-0.74 0.6054,-1.3454 1.3454,-1.3454l18.2207,0l0.001,-0.0026l15.4336,0c0.74,0 1.3455,-0.6053 1.3455,-1.3454l0,-0.0001c0,-0.7314 -0.5915,-1.3311 -1.3196,-1.3451l-38.9045,0c-0.7401,0 -1.3455,-0.6053 -1.3455,-1.3454l0,-0.0001c0,-0.7401 0.6054,-1.3454 1.3455,-1.3454l25.5976,0l16.0564,0l9.5723,0l-0.00001,0.076z"/>
   <path fill="#cc3366" fill-rule="nonzero" id="_458450360" class="fil0" d="m108.344441,2.560933c6.9283,0.2545 10.5141,2.3677 13.7512,6.8761c2.8263,3.9362 0.9894,11.1787 0.0815,13.5361l-15.7089,35.38079l-15.26271,0l5.5565,-22.4052l-15.9627,22.4052l-15.33719,0l18.983,-42.98259c4.44029,-10.054 14.256,-13.1648 23.8993,-12.8104zm65.3903,0.0534l-20.0248,45.57749c-2.4042,5.4722 -6.6575,9.6425 -13.9898,10.5791c-5.8152,0.743 -14.1434,0.8925 -18.8389,-2.9577c-3.5848,-2.9395 -3.2078,-9.9094 -1.6938,-14.0397l17.1996,-39.15919l13.4896,0l-5.5984,22.35329c0,0 15.9391,-22.35329 15.9391,-22.35329l13.5174,0z"/>
   <g id="g12">
    <path fill="#cc3366" id="_458450792" class="fil1" d="m11.932135,33.482929c1.5647,0 2.8332,1.2685 2.8332,2.8332c0,1.5647 -1.2685,2.8332 -2.8332,2.8332c-1.5647,0 -2.8332,-1.2685 -2.8332,-2.8332c0,-1.5647 1.2685,-2.8332 2.8332,-2.8332zm0,1.4167c0.7823,0 1.4165,0.6342 1.4165,1.4165c0,0.7824 -0.6342,1.4165 -1.4165,1.4165c-0.7824,0 -1.4165,-0.6341 -1.4165,-1.4165c0,-0.7823 0.6341,-1.4165 1.4165,-1.4165z"/>
    <circle fill="#ffffff" id="_458453720" class="fil2" cx="11.932135" cy="36.316128" r="1.4166"/>
   </g>
   <g id="g16">
    <path fill="#cc3366" id="_458460200" class="fil1" d="m5.488935,49.436329c1.5647,0 2.8332,1.2685 2.8332,2.8332c0,1.5647 -1.2685,2.8332 -2.8332,2.8332c-1.5647,0 -2.8332,-1.2685 -2.8332,-2.8332c0,-1.5647 1.2685,-2.8332 2.8332,-2.8332zm0,1.4167c0.7823,0 1.4165,0.6342 1.4165,1.4165c0,0.7824 -0.6342,1.4165 -1.4165,1.4165c-0.7824,0 -1.4165,-0.6341 -1.4165,-1.4165c0,-0.7823 0.6341,-1.4165 1.4165,-1.4165z"/>
    <circle fill="#ffffff" id="_458462024" class="fil2" cx="5.488885" cy="52.269528" r="1.4166"/>
   </g>
   <g id="g20">
    <path fill="#cc3366" id="_458461808" class="fil1" d="m2.352435,22.525029c1.5647,0 2.8332,1.2685 2.8332,2.8332c0,1.5647 -1.2685,2.8332 -2.8332,2.8332c-1.5647,0 -2.8332,-1.2685 -2.8332,-2.8332c0,-1.5647 1.2685,-2.8332 2.8332,-2.8332zm0,1.4167c0.7823,0 1.4165,0.6342 1.4165,1.4165c0,0.7824 -0.6342,1.4165 -1.4165,1.4165c-0.7824,0 -1.4165,-0.6341 -1.4165,-1.4165c0,-0.7823 0.6341,-1.4165 1.4165,-1.4165z"/>
    <circle fill="#ffffff" id="_458460512" class="fil2" cx="2.352386" cy="25.358229" r="1.4166"/>
   </g>
   <g id="g24">
    <path fill="#cc3366" id="_458460368" class="fil1" d="m12.547635,11.809329c1.5647,0 2.8332,1.2685 2.8332,2.8332c0,1.5647 -1.2685,2.8332 -2.8332,2.8332c-1.5647,0 -2.8332,-1.2685 -2.8332,-2.8332c0,-1.5647 1.2685,-2.8332 2.8332,-2.8332zm0,1.4167c0.7823,0 1.4165,0.6342 1.4165,1.4165c0,0.7824 -0.6342,1.4165 -1.4165,1.4165c-0.7824,0 -1.4165,-0.6341 -1.4165,-1.4165c0,-0.7823 0.6341,-1.4165 1.4165,-1.4165z"/>
    <circle fill="#ffffff" id="_458461016" class="fil2" cx="12.547635" cy="14.642529" r="1.4166"/>
   </g>
   <g id="g28">
    <path fill="#cc3366" id="_458459840" class="fil1" d="m12.859435,0.961529c1.5647,0 2.8332,1.2685 2.8332,2.8332c0,1.5647 -1.2685,2.8332 -2.8332,2.8332c-1.5647,0 -2.8332,-1.2685 -2.8332,-2.8332c0,-1.5647 1.2685,-2.8332 2.8332,-2.8332zm0,1.4167c0.7823,0 1.4165,0.6342 1.4165,1.4165c0,0.7824 -0.6342,1.4165 -1.4165,1.4165c-0.7824,0 -1.4165,-0.6341 -1.4165,-1.4165c0,-0.7823 0.6341,-1.4165 1.4165,-1.4165z"/>
    <circle fill="#ffffff" id="_458460080" class="fil2" cx="12.859435" cy="3.794779" r="1.4166"/>
   </g>
   <path fill="#cc3366" stroke-width="0.264583px" d="m155.148411,58.882423l24.5004,-55.42269l23.56485,0.00005l22.18674,-0.00005l-25.01239,55.73959l-10.78049,0.27283l3.66384,-19.44653l-11.55519,12.96436l-0.28184,-14.65536l-13.80985,20.29204l-12.47607,0.25576z" id="path924"/>
   <path fill="#cc3366" fill-rule="nonzero" d="m66.638831,2.697933c3.58411,0.175 7.16401,1.2097 9.38631,4.1912c2.546,3.4173 2.1251,7.9864 0.933,11.7527c-0.975,2.463 -2.223,4.083 -3.428,5.80129c-1.205,1.7182 -2.5302,2.9598 -3.659,4.0374c-1.2254,1.1782 -2.4292,2.1616 -3.6113,2.9503c-0.0534,0.1175 -0.1233,0.2261 -0.2067,0.3229c0.665,0.7506 1.168,1.6862 1.5091,2.8068c1.5476,5.1583 -0.9556,12.4746 -4.0727,16.5053c-2.7725,3.5847 -6.8713,6.2904 -11.2813,7.3531c-2.1294,0.5131 -4.2715,0.7696 -6.4265,0.7696l-27.3986,0l0.0242,-0.0604l-2.9324,0c-0.7401,0 -1.3454,-0.6054 -1.3454,-1.3454l0,-0.0002c0,-0.74 0.6053,-1.3454 1.3454,-1.3454l28.4882,0c0.7281,-0.014 1.3196,-0.6138 1.3196,-1.3451l0,-0.0002c0,-0.707 -0.5527,-1.2911 -1.2473,-1.3418l-35.8949,0c-0.7401,0 -1.3454,-0.6053 -1.3454,-1.3454l0,-0.0001c0,-0.7401 0.6053,-1.3454 1.3454,-1.3454l13.4944,0l0.0133,-0.0333c0.0753,0.0177 0.153,0.029 0.2325,0.0333l27.9139,0c0.0242,0 0.0483,0.0007 0.0722,0.002l2.0816,0c0.74,0 1.3454,-0.6054 1.3454,-1.3454l0,-0.0002c0,-0.74 -0.6054,-1.3454 -1.3454,-1.3454l-29.2379,0l0.0001,-0.0002l-6.9014,0c-0.74,0 -1.3454,-0.6054 -1.3454,-1.3454l0,-0.0002c0,-0.74 0.6054,-1.3454 1.3454,-1.3454l7.9778,0l0.0001,-0.0002l22.9648,0c0.74,0 1.3455,-0.6054 1.3455,-1.3454l0,-0.0002c0,-0.74 -0.6055,-1.3454 -1.3455,-1.3454l-21.8884,0l0.0002,-0.0004l-6.9618,0c-0.74,0 -1.3454,-0.6053 -1.3454,-1.3453l0,-0.0002c0,-0.7401 0.6054,-1.3454 1.3454,-1.3454l30.5449,0c0.7185,-0.0249 1.2986,-0.6202 1.2986,-1.3445l0,-0.0002c0,-0.74 -0.6055,-1.3454 -1.3455,-1.3454l-21.3838,0l0.0006,-0.001l-12.5471,0c-0.74,0 -1.3454,-0.6054 -1.3454,-1.3454l0,-0.0002c0,-0.74 0.6054,-1.3454 1.3454,-1.3454l26.4712,0c0.7094,-0.035 1.279,-0.6259 1.279,-1.3437l0,-0.0002c0,-0.74 -0.6055,-1.3453 -1.3455,-1.3453l-11.7056,0l0.00059,-0.001l-5.7895,0c-0.7401,0 -1.3455,-0.6054 -1.3455,-1.3454l0,-0.0002c0,-0.7034 0.5471,-1.2853 1.2369,-1.341l23.4971,0c0.74,0 1.3454,-0.6054 1.3454,-1.3454l0,-0.0002c0,-0.74 -0.6054,-1.3454 -1.3454,-1.3454l-15.448,0l0.0005,-0.001l-26.37499,0c-0.7401,0 -1.3454,-0.6054 -1.3454,-1.3454l0,-0.0002c0,-0.74 0.6053,-1.3454 1.3454,-1.3454l41.65399,0c0.0314,0 0.0625,0.001 0.09341,0.003l8.72429,0c0.7399,0 1.34531,-0.6054 1.34531,-1.34539l0,-0.0002c0,-0.74 -0.60541,-1.3454 -1.34531,-1.3454l-21.9452,0l0.0006,-0.0015l-8.4572,0c-0.74,0 -1.3454,-0.6053 -1.3454,-1.3454l0,-0.0001c0,-0.7401 0.6054,-1.3454 1.3454,-1.3454l25.16171,0c0.7151,-0.0287 1.2911,-0.6224 1.2911,-1.3442l0,-0.0002c0,-0.74 -0.60541,-1.3454 -1.3454,-1.3454l-14.4979,0l0.0018,-0.0046l-20.4423,0c-0.7401,0 -1.3454,-0.6053 -1.3454,-1.3454l0,-0.0002c0,-0.74 0.6053,-1.3453 1.3454,-1.3453l21.5186,0l0.0008,-0.0019l24.4984,0c0.7401,0 1.3455,-0.6053 1.3455,-1.3454l0,-0.0001c0,-0.7236 -0.5788,-1.3182 -1.2962,-1.3444l-40.616,0c-0.74,0 -1.3454,-0.6054 -1.3454,-1.3454l0,-0.0002c0,-0.74 0.6054,-1.3454 1.3454,-1.3454l18.2207,0l0.001,-0.0026l15.4336,0c0.74,0 1.3455,-0.6053 1.3455,-1.3454l0,-0.0001c0,-0.7314 -0.5915,-1.3311 -1.3196,-1.3451l-38.9045,0c-0.7401,0 -1.3455,-0.6053 -1.3455,-1.3454l0,-0.0001c0,-0.7401 0.6054,-1.3454 1.3455,-1.3454l25.5976,0l16.0564,0l9.5723,0l-0.00001,0.076z" class="fil0" id="path44"/>
  </g>
  <circle clip-rule="evenodd" fill="#ffffff" fill-rule="evenodd" r="0" cy="131.9131" cx="-107.00281" class="fil2" id="circle99-3"/>
 </g>
</svg>